PathFileType	4	(X/Y/Z)	s10c0001.trc
DataRate	CameraRate	NumFrames	NumMarkers	Units	OrigDataRate	OrigDataStartFrame	OrigNumFrames
200	200	4	49	mm	200	1500	2000
Frame#	Time	racr			lacr			c7			jug			rlel			rdr			llel			ldr			s2			lic			ric			lasi			rasi			rpsi			lpsi			rgt			lgt			rth1			rth2			rth3			rth4			rlfc			rmfc			rsh1			rsh2			rsh3			rsh4			rlmal			rmmal			rcal			rtoe			rmt5			rmt1			lth1			lth2			lth4			lth3			llfc			lmfc			llmal			lmmal			lcal			lmt1			lmt5			lsh1			lsh2			lsh3			lsh4			ltoe			
		X1	Y1	Z1	X2	Y2	Z2	X3	Y3	Z3	X4	Y4	Z4	X5	Y5	Z5	X6	Y6	Z6	X7	Y7	Z7	X8	Y8	Z8	X9	Y9	Z9	X10	Y10	Z10	X11	Y11	Z11	X12	Y12	Z12	X13	Y13	Z13	X14	Y14	Z14	X15	Y15	Z15	X16	Y16	Z16	X17	Y17	Z17	X18	Y18	Z18	X19	Y19	Z19	X20	Y20	Z20	X21	Y21	Z21	X22	Y22	Z22	X23	Y23	Z23	X24	Y24	Z24	X25	Y25	Z25	X26	Y26	Z26	X27	Y27	Z27	X28	Y28	Z28	X29	Y29	Z29	X30	Y30	Z30	X31	Y31	Z31	X32	Y32	Z32	X33	Y33	Z33	X34	Y34	Z34	X35	Y35	Z35	X36	Y36	Z36	X37	Y37	Z37	X38	Y38	Z38	X39	Y39	Z39	X40	Y40	Z40	X41	Y41	Z41	X42	Y42	Z42	X43	Y43	Z43	X44	Y44	Z44	X45	Y45	Z45	X46	Y46	Z46	X47	Y47	Z47	X48	Y48	Z48	X49	Y49	Z49	
1500	7.5000	460.303528	1378.502441	682.337708	482.651886	1386.334595	304.628418	430.225433	1426.348145	483.754761	562.099792	1375.228760	501.802246	450.709991	1123.103149	815.953491	473.483643	912.415649	931.490051	484.016876	1108.999512	192.842072	540.237671	907.545288	87.558929	386.798370	931.607422	495.251068	535.120911	993.997742	350.545349	536.677551	1001.702881	648.887695	598.160461	918.662781	383.364441	580.439270	907.709351	638.536987	405.141510	972.187378	557.840515	405.836121	983.804077	444.322662	463.441864	853.734253	683.436096	472.297119	854.482300	307.626312	483.115936	729.298828	714.498413	505.946167	643.448242	700.287964	483.904877	561.573242	691.544006	542.612244	646.252380	691.802856	493.443085	459.376099	674.824707	481.394379	441.019226	562.224976	447.590057	360.084656	716.710999	468.693970	273.219971	714.553894	444.169678	190.583740	716.585815	500.410889	274.215790	691.397461	454.100830	84.993652	709.936401	483.576569	95.888847	630.040955	420.335480	50.327374	655.057190	652.019043	85.033043	711.303040	566.111450	42.146393	755.902588	609.747070	46.708736	658.361816	494.641846	746.211548	282.315704	517.026001	663.845093	294.199921	551.013306	666.159790	304.958435	495.164703	577.836731	300.766052	496.207428	472.694611	314.836792	491.269897	454.783569	425.167358	450.845459	103.742439	283.875061	469.856842	101.060020	362.237366	411.035919	58.709656	327.018005	612.099243	47.392860	347.337372	579.620972	46.115742	245.204147	446.914551	364.283936	269.544769	473.095306	281.440826	275.611053	452.322144	194.221970	273.280945	501.842590	283.038727	301.543335	653.361450	92.384834	295.269501	
1501	7.5050	460.271240	1378.502686	682.326050	482.636749	1386.329346	304.622162	430.199463	1426.359131	483.757263	562.083740	1375.229004	501.811829	450.661316	1123.110474	815.981384	473.450745	912.449890	931.533142	484.026489	1109.003052	192.802704	540.240417	907.548645	87.531090	386.801086	931.617798	495.259491	535.129211	993.993591	350.545532	536.690613	1001.692200	648.871887	598.161316	918.654846	383.361755	580.440002	907.728149	638.529419	405.067657	972.222290	557.829224	405.836853	983.794556	444.299103	463.429230	853.732178	683.419861	472.298645	854.487244	307.620911	483.092651	729.305664	714.469604	505.957214	643.451904	700.273499	483.891846	561.586914	691.523438	542.614319	646.226624	691.786621	493.440857	459.374542	674.804932	481.411133	441.030945	562.224854	447.576324	360.098083	716.699402	468.686188	273.206268	714.548401	444.190552	190.579681	716.585266	500.399658	274.207123	691.405884	454.102509	85.002586	709.923035	483.571533	95.871147	630.056335	420.237274	50.412682	655.025757	652.007324	85.071693	711.279724	566.139587	42.152840	755.905579	609.741821	46.718399	658.355835	494.639587	746.208496	282.316620	517.032104	663.827209	294.231659	551.008545	666.167358	304.942291	495.158234	577.832703	300.766296	496.213196	472.691986	314.815826	491.268616	454.782471	425.160248	450.842346	103.748550	283.867157	469.858521	101.057091	362.239716	411.031982	58.705082	327.007416	612.124390	47.408180	347.333740	579.621521	46.120045	245.196411	446.903259	364.278564	269.535675	473.055206	281.441498	275.608887	452.319672	194.218201	273.276855	501.846771	283.053406	301.543610	653.350342	92.395042	295.278778	
1502	7.5100	460.235535	1378.512695	682.319702	482.627991	1386.343140	304.601379	430.178131	1426.348145	483.739441	562.068787	1375.237427	501.806732	450.618561	1123.120972	815.996948	473.392487	912.471252	931.543762	484.029724	1109.010498	192.788086	540.239441	907.566162	87.501854	386.787842	931.612732	495.215179	535.109375	993.991821	350.541931	536.657715	1001.703125	648.868591	598.161499	918.654602	383.361328	580.424744	907.706116	638.538025	405.060638	972.219421	557.808350	405.838013	983.803955	444.272247	463.427643	853.730774	683.416870	472.294739	854.493774	307.608704	483.076630	729.308167	714.466553	505.908661	643.463196	700.267090	483.883911	561.586121	691.522949	542.586060	646.241516	691.776978	493.434784	459.364899	674.803772	481.429382	441.042572	562.224182	447.584503	360.085114	716.685486	468.703766	273.217804	714.548035	444.169647	190.579376	716.572327	500.426025	274.218719	691.397827	454.109192	84.982033	709.926331	483.555359	95.869438	630.051270	420.263519	50.382645	655.030334	652.000244	85.051949	711.267334	566.120422	42.149155	755.892639	609.747253	46.716759	658.349854	494.639740	746.208435	282.316559	517.027344	663.833252	294.212799	550.999084	666.177246	304.909576	495.150024	577.825195	300.760529	496.196136	472.694702	314.820679	491.270325	454.776794	425.159790	450.814880	103.762840	283.861542	469.872711	101.054764	362.228241	411.029755	58.710049	327.007446	612.113953	47.415890	347.329956	579.624023	46.118286	245.201462	446.907013	364.269012	269.523193	473.065430	281.441437	275.599884	452.310089	194.217667	273.264435	501.822571	283.024414	301.533569	653.361755	92.392227	295.260284	
1503	7.5150	460.207520	1378.498657	682.314636	482.612518	1386.344849	304.595276	430.159027	1426.359009	483.697968	562.052307	1375.226807	501.817963	450.566284	1123.130615	816.003723	473.341797	912.494019	931.602966	484.014618	1109.013916	192.777145	540.241455	907.576782	87.469406	386.769257	931.620422	495.218170	535.096741	993.998535	350.539795	536.644653	1001.699402	648.867310	598.147156	918.654236	383.349640	580.402893	907.726868	638.532654	405.023254	972.230164	557.804443	405.827332	983.805786	444.245422	463.404083	853.723694	683.404236	472.287262	854.491882	307.599762	483.088379	729.304810	714.457092	505.922485	643.450439	700.246826	483.879059	561.590149	691.515442	542.573181	646.235840	691.763428	493.428925	459.367065	674.799133	481.448883	441.053894	562.222900	447.531616	360.044525	716.694763	468.675690	273.208069	714.549927	444.139038	190.589508	716.576599	500.405487	274.199921	691.398010	454.068909	85.004486	709.925842	483.558228	95.862862	630.047852	420.239227	50.382874	655.030518	652.003479	85.070015	711.269958	566.100647	42.158928	755.882141	609.743958	46.711216	658.351379	494.660614	746.215881	282.297211	517.031555	663.831360	294.235107	550.994263	666.183533	304.893036	495.168427	577.852600	300.747223	496.193329	472.694275	314.827240	491.258698	454.774353	425.152130	450.837799	103.766365	283.846130	469.840790	101.061661	362.225006	411.028595	58.715118	326.997375	612.106995	47.419701	347.314545	579.619141	46.124985	245.192413	446.920563	364.280212	269.535767	473.059601	281.426117	275.597351	452.315399	194.221985	273.260345	501.854248	283.046570	301.530975	653.359314	92.386581	295.243835	
